<svg xmlns="http://www.w3.org/2000/svg" version="1.1" xmlns:xlink="http://www.w3.org/1999/xlink" xmlns:svgjs="http://svgjs.dev/svgjs" width="2000" height="616" viewBox="0 0 2000 616"><g transform="matrix(1,0,0,1,-1.2121212121212466,1.0444398565832103)"><svg viewBox="0 0 396 122" data-background-color="#ffffff" preserveAspectRatio="xMidYMid meet" height="616" width="2000" xmlns="http://www.w3.org/2000/svg" xmlns:xlink="http://www.w3.org/1999/xlink"><g id="tight-bounds" transform="matrix(1,0,0,1,0.2400000000000091,-0.20685334821939705)"><svg viewBox="0 0 395.52 122.4137066964388" height="122.4137066964388" width="395.52"><g><svg viewBox="0 0 542.3863693592175 167.86894704410795" height="122.4137066964388" width="395.52"><g><rect width="10.954120756288715" height="145.76174851876232" x="107.23653981683272" y="11.053599262672819" fill="#ffffff" opacity="1" stroke-width="0" stroke="transparent" fill-opacity="1" class="rect-qz-0" data-fill-palette-color="primary" rx="1%" id="qz-0" data-palette-color="#ffffff"></rect></g><g transform="matrix(1,0,0,1,146.86636935921754,23.200411639236343)"><svg viewBox="0 0 395.52 121.46812376563527" height="121.46812376563527" width="395.52"><g id="textblocktransform"><svg viewBox="0 0 395.52 121.46812376563527" height="121.46812376563527" width="395.52" id="textblock"><g><svg viewBox="0 0 395.52 121.46812376563527" height="121.46812376563527" width="395.52"><g transform="matrix(1,0,0,1,0,0)"><svg width="395.52" viewBox="1.4 -30.96 121.50999999999999 37.32" height="121.46812376563527" data-palette-color="#ffffff"><path d="M24.44-1.44L24.44-1.44Q24.44 4.52 26.56 4.52L26.56 4.52Q27.68 4.52 28.84 2.16L28.84 2.16Q29.04 1.76 29.36 1.86 29.68 1.96 29.68 2.1 29.68 2.24 29.28 3.12 28.88 4 28.02 4.92 27.16 5.84 26.28 5.84L26.28 5.84Q22.12 5.84 22.12-2.44L22.12-2.44Q22.12-6.76 22.88-11.6L22.88-11.6 22.48-11.6Q16.36 0 13.04 0L13.04 0Q9 0 9-4.8L9-4.8Q9-6.72 10.18-10.62 11.36-14.52 12.56-18.68 13.76-22.84 13.76-25.12L13.76-25.12Q13.76-29.92 9.84-29.92L9.84-29.92Q6.2-29.92 4.4-25.76L4.4-25.76Q3.2-22.96 3.2-20.16L3.2-20.16Q3.2-18.8 3.48-17.44L3.48-17.44Q4.36-13.28 7.2-13.28L7.2-13.28Q6.92-12.72 6.44-12.72L6.44-12.72Q2.84-12.72 1.76-17.28L1.76-17.28Q1.4-18.72 1.4-20.16L1.4-20.16Q1.4-23.24 2.96-26.36L2.96-26.36Q5.28-30.92 9.8-30.92L9.8-30.92Q13.28-30.92 14.86-28.98 16.44-27.04 16.44-23.94 16.44-20.84 14.2-13.42 11.96-6 11.96-3.7 11.96-1.4 13.52-1.4L13.52-1.4Q14.8-1.4 17.36-5.32L17.36-5.32Q21.56-11.84 24.72-19.44L24.72-19.44Q25.96-22.44 27.32-22.44L27.32-22.44Q28.2-22.44 28.2-21.52L28.2-21.52Q26.48-17.44 25.46-11.66 24.44-5.88 24.44-1.44ZM43.32 1.64L43.32 1.64Q43.32 4.6 46.44 5.2L46.44 5.2Q47.04 5.32 47.8 5.32L47.8 5.32Q52.8 5.32 55.72 2.1 58.64-1.12 58.64-6L58.64-6Q58.64-7.92 57.94-9.54 57.24-11.16 56.2-12.22 55.16-13.28 53.94-14.36 52.72-15.44 51.68-16.32 50.64-17.2 49.94-18.44 49.24-19.68 49.24-21.08L49.24-21.08Q49.24-24.76 52.54-27.86 55.84-30.96 59.64-30.96L59.64-30.96Q60.4-30.96 60.76-30.4 61.12-29.84 61.12-29.28L61.12-29.28 61.08-28.76Q60.8-28.92 59.68-28.92L59.68-28.92Q57.12-28.92 54.72-26.52 52.32-24.12 52.32-20.96L52.32-20.96Q52.32-19.68 53.02-18.46 53.72-17.24 54.76-16.32 55.8-15.4 57-14.26 58.2-13.12 59.23-12.02 60.28-10.92 60.98-9.34 61.68-7.76 61.68-6L61.68-6Q61.68-1.16 57.68 2.6 53.68 6.36 47.8 6.36L47.8 6.36Q42.84 6.36 41.52 3.16L41.52 3.16Q40.48 0.52 42.32-2.68 44.16-5.88 47.64-7L47.64-7Q48.92-7.4 49.92-7.4 50.92-7.4 51.3-7.06 51.68-6.72 51.8-6L51.8-6Q48.04-6 45.36-2.96L45.36-2.96Q43.32-0.68 43.32 1.64ZM61.88-20.48L61.88-20.48Q61.88-20.28 61.5-20.28 61.12-20.28 60.8-20.44 60.48-20.6 60.48-20.88L60.48-20.88Q60.48-24.96 61.4-27.44 62.32-29.92 63.84-29.92L63.84-29.92Q64.23-29.92 64.52-29.64 64.8-29.36 64.8-28.92L64.8-28.92Q63-27.12 62.2-23.52L62.2-23.52Q61.88-22.08 61.88-20.48ZM71.35 5.84L71.35 5.84Q69.03 5.84 67.93 3.4 66.83 0.96 66.83-3.92 66.83-8.8 68.27-15.48 69.71-22.16 71.65-26.56 73.59-30.96 75.03-30.96L75.03-30.96Q75.71-30.96 75.71-30.16L75.71-30.16Q74.87-28.24 73.59-24.38 72.31-20.52 71.45-17.24 70.59-13.96 69.89-9.56 69.19-5.16 69.19-2.02 69.19 1.12 69.81 2.82 70.43 4.52 71.51 4.52L71.51 4.52Q72.43 4.52 73.27 3.66 74.11 2.8 74.47 1.96L74.47 1.96Q74.67 1.52 75.19 1.72L75.19 1.72Q75.39 1.8 75.29 2.06 75.19 2.32 74.97 2.72 74.75 3.12 74.19 3.96L74.19 3.96Q72.99 5.84 71.35 5.84ZM79.35 0L79.35 0Q76.07 0 76.07-5.16L76.07-5.16Q76.07-8.24 77.59-11.92L77.59-11.92Q79.71-17.08 83.15-18.96L83.15-18.96Q84.63-19.76 85.91-19.76 87.19-19.76 87.93-19.2 88.67-18.64 88.87-18.08L88.87-18.08 89.11-17.56Q88.99-16.88 88.43-16.88L88.43-16.88Q87.79-16.88 87.69-17.18 87.59-17.48 87.47-17.7 87.35-17.92 86.91-18.3 86.47-18.68 85.91-18.68L85.91-18.68Q83.31-18.68 81.19-14L81.19-14Q78.79-8.6 78.79-3.84L78.79-3.84Q78.79-1.44 79.75-1.44L79.75-1.44Q80.51-1.44 81.89-3.14 83.27-4.84 84.79-7.4L84.79-7.4Q87.43-11.8 89.07-15.04L89.07-15.04Q90.43-17.92 91.87-17.92L91.87-17.92Q92.63-17.92 92.63-17L92.63-17Q92.27-16.24 91.71-14.84 91.15-13.44 90.23-9.28 89.31-5.12 89.31-1 89.31 3.12 90.55 3.12L90.55 3.12Q91.03 3.12 91.43 2.7 91.83 2.28 92.15 1.44L92.15 1.44Q92.27 1 92.71 1L92.71 1Q92.87 1 92.95 1.12 93.03 1.24 92.95 1.52 92.87 1.8 92.67 2.3 92.47 2.8 91.81 3.64 91.15 4.48 90.43 4.48L90.43 4.48Q88.75 4.48 87.85 2.28 86.95 0.08 86.95-2.92 86.95-5.92 87.39-8.68L87.39-8.68 86.99-8.68Q81.91 0 79.35 0ZM97.95-1.36L97.95-1.36Q97.95 1.44 99.75 1.44L99.75 1.44Q101.43 1.44 102.89-1.32 104.35-4.08 104.35-8.28L104.35-8.28Q104.35-10.32 103.61-14.04 102.87-17.76 102.87-18.9 102.87-20.04 102.95-20.4L102.95-20.4Q102.43-19.56 99.95-14.82 97.47-10.08 95.55-7.32L95.55-7.32Q95.39-7.16 95.11-7.22 94.83-7.28 94.65-7.46 94.47-7.64 94.47-7.72 94.47-7.8 94.51-7.84L94.51-7.84Q96.39-10.56 98.89-15.34 101.39-20.12 103.07-22.48 104.75-24.84 106.39-24.84L106.39-24.84Q107.23-24.84 107.23-24.12L107.23-24.12Q107.23-23.64 106.55-22.84L106.55-22.84Q104.39-20.4 104.39-17.84L104.39-17.84Q104.39-16.32 105.55-11.98 106.71-7.64 106.71-5.68L106.71-5.68Q106.71-2.16 104.75 0.3 102.79 2.76 100.31 2.76L100.31 2.76Q96.79 2.76 96.79-1.28L96.79-1.28Q96.79-4.32 98.65-7.64 100.51-10.96 102.39-12.12L102.39-12.12Q102.75-12.36 102.85-11.84 102.95-11.32 102.71-11.16L102.71-11.16Q100.59-9.96 99.03-6.04L99.03-6.04Q97.95-3.28 97.95-1.36ZM112.63-17.32L112.63-17.32Q111.07-17.32 111.07-18.6L111.07-18.6Q111.07-19.08 111.47-19.2L111.47-19.2Q111.51-19.24 111.59-19.24L111.59-19.24Q111.83-18.96 112.49-18.96 113.15-18.96 114.59-19.04L114.59-19.04Q116.47-24.12 118.19-24.12L118.19-24.12Q118.87-24.12 118.87-23.36L118.87-23.36Q118.23-21.76 117.43-19.24L117.43-19.24Q121.39-19.68 122.59-19.68L122.59-19.68Q122.91-19.68 122.91-19.36L122.91-19.36Q122.91-18.72 122.07-18.72L122.07-18.72Q121.63-18.72 116.99-17.88L116.99-17.88Q113.83-7.88 113.83-1.68 113.83 4.52 116.31 4.52L116.31 4.52Q117.31 4.52 118.19 3.66 119.07 2.8 119.43 1.96L119.43 1.96Q119.59 1.52 120.11 1.72L120.11 1.72Q120.35 1.8 120.27 1.96L120.27 1.96Q120.03 2.48 119.67 3.16 119.31 3.84 118.27 4.84 117.23 5.84 116.15 5.84L116.15 5.84Q111.39 5.84 111.39-2.44L111.39-2.44Q111.39-9.44 113.99-17.4L113.99-17.4Q113.43-17.32 112.63-17.32Z" opacity="1" transform="matrix(1,0,0,1,0,0)" fill="#ffffff" class="wordmark-text-0" data-fill-palette-color="primary" id="text-0"></path></svg></g></svg></g></svg></g></svg></g><g><svg viewBox="0 0 78.56083103073661 167.86894704410795" height="167.86894704410795" width="78.56083103073661"><g><svg xmlns="http://www.w3.org/2000/svg" xmlns:xlink="http://www.w3.org/1999/xlink" version="1.0" x="0" y="0" viewBox="28.937984438959337 4.9999999999999964 42.11901556104067 90" enable-background="new 0 0 100 100" xml:space="preserve" height="167.86894704410795" width="78.56083103073661" class="icon-icon-0" data-fill-palette-color="accent" id="icon-0"><g fill="#d2d6dc" data-fill-palette-color="accent"><path d="M49.285 25.725C49.288 24.134 47.021 5 47.021 5H45.31c0 0 0.618 17.587 0.618 17.599 0 0.794-0.617 1.554-1.411 1.554s-1.409-0.938-1.409-1.733c0-0.004-0.454-17.42-0.454-17.42h-1.699c0 0-0.609 17.587-0.609 17.599 0 0.794-0.601 1.554-1.395 1.554-0.795 0-1.396-0.813-1.396-1.608C37.555 22.54 37.241 5 37.241 5h-1.668c0 0-0.809 17.587-0.809 17.599 0 0.794-0.456 1.554-1.251 1.554-0.792 0-1.25-0.938-1.25-1.733C32.264 22.416 32.97 5 32.97 5h-1.682c0 0-2.357 19.107-2.35 20.678 0.022 5.013 3.362 9.571 7.885 10.648L34.818 95h8.543l-2.06-58.627C45.869 35.327 49.276 30.772 49.285 25.725z" fill="#d2d6dc" data-fill-palette-color="accent"></path><path d="M57.943 8.713c0.123-2.008 0.209-3.634 2.217-3.634 2.004 0 9.84 4.578 9.84 13.371l0 0c0 0.015 0 0.032 0 0.054 0 0 1.057 27.507 1.057 27.514-0.094 3.514-2.441 6.334-5.979 6.334-0.143 0-0.019 0.39-0.159 0.381L66.668 95H58V9.415L57.943 8.713z" fill="#d2d6dc" data-fill-palette-color="accent"></path></g></svg></g></svg></g></svg></g><defs></defs></svg><rect width="395.52" height="122.4137066964388" fill="none" stroke="none" visibility="hidden"></rect></g></svg></g></svg>